<svg width="720" height="430" viewBox="0 0 720 430" xmlns="http://www.w3.org/2000/svg">
  <defs><style>@import url('https://fonts.googleapis.com/css2?family=Nunito:wght@400;600;700&amp;display=swap');
  text { font-family: 'Nunito','Trebuchet MS',Arial,sans-serif; }</style></defs>
  <rect width="720" height="430" fill="#0d1117" rx="12"/>

  <!-- Title -->
  <text x="360" y="22" text-anchor="middle" fill="#6e7681" font-size="12" font-weight="700">Belady's Anomaly — 참조열: 1 2 3 4 1 2 5 1 2 3 4 5</text>

  <!-- Reference string chips -->
  <rect x="60" y="30" width="18" height="16" rx="3" fill="#1e2329"/><text x="69" y="43" text-anchor="middle" fill="#8b949e" font-size="10" font-family="monospace">1</text>
  <rect x="82" y="30" width="18" height="16" rx="3" fill="#1e2329"/><text x="91" y="43" text-anchor="middle" fill="#8b949e" font-size="10" font-family="monospace">2</text>
  <rect x="104" y="30" width="18" height="16" rx="3" fill="#1e2329"/><text x="113" y="43" text-anchor="middle" fill="#8b949e" font-size="10" font-family="monospace">3</text>
  <rect x="126" y="30" width="18" height="16" rx="3" fill="#1e2329"/><text x="135" y="43" text-anchor="middle" fill="#8b949e" font-size="10" font-family="monospace">4</text>
  <rect x="148" y="30" width="18" height="16" rx="3" fill="#1e2329"/><text x="157" y="43" text-anchor="middle" fill="#8b949e" font-size="10" font-family="monospace">1</text>
  <rect x="170" y="30" width="18" height="16" rx="3" fill="#1e2329"/><text x="179" y="43" text-anchor="middle" fill="#8b949e" font-size="10" font-family="monospace">2</text>
  <rect x="192" y="30" width="18" height="16" rx="3" fill="#1e2329"/><text x="201" y="43" text-anchor="middle" fill="#8b949e" font-size="10" font-family="monospace">5</text>
  <rect x="214" y="30" width="18" height="16" rx="3" fill="#1e2329"/><text x="223" y="43" text-anchor="middle" fill="#8b949e" font-size="10" font-family="monospace">1</text>
  <rect x="236" y="30" width="18" height="16" rx="3" fill="#1e2329"/><text x="245" y="43" text-anchor="middle" fill="#8b949e" font-size="10" font-family="monospace">2</text>
  <rect x="258" y="30" width="18" height="16" rx="3" fill="#1e2329"/><text x="267" y="43" text-anchor="middle" fill="#8b949e" font-size="10" font-family="monospace">3</text>
  <rect x="280" y="30" width="18" height="16" rx="3" fill="#1e2329"/><text x="289" y="43" text-anchor="middle" fill="#8b949e" font-size="10" font-family="monospace">4</text>
  <rect x="302" y="30" width="18" height="16" rx="3" fill="#1e2329"/><text x="311" y="43" text-anchor="middle" fill="#8b949e" font-size="10" font-family="monospace">5</text>

  <!-- ===== LEFT TABLE (3 frames) ===== -->
  <text x="113" y="62" text-anchor="middle" fill="#3fb950" font-size="12" font-weight="700">3 프레임</text>
  <!-- Header -->
  <rect x="15" y="66" width="22" height="18" rx="2" fill="#21262d"/><text x="26" y="79" text-anchor="middle" fill="#6e7681" font-size="10">참조</text>
  <rect x="40" y="66" width="42" height="18" rx="2" fill="#21262d"/><text x="61" y="79" text-anchor="middle" fill="#6e7681" font-size="10">F1</text>
  <rect x="85" y="66" width="42" height="18" rx="2" fill="#21262d"/><text x="106" y="79" text-anchor="middle" fill="#6e7681" font-size="10">F2</text>
  <rect x="130" y="66" width="42" height="18" rx="2" fill="#21262d"/><text x="151" y="79" text-anchor="middle" fill="#6e7681" font-size="10">F3</text>
  <rect x="176" y="66" width="32" height="18" rx="2" fill="#21262d"/><text x="192" y="79" text-anchor="middle" fill="#6e7681" font-size="10">결과</text>

  <!-- Row 0: ref=1, [1,—,—], F -->
  <rect x="15" y="86" width="22" height="22" rx="2" fill="#161b22"/><text x="26" y="101" text-anchor="middle" fill="#8b949e" font-size="11" font-family="monospace">1</text>
  <rect x="40" y="86" width="42" height="22" rx="2" fill="#1c3a5e"/><text x="61" y="101" text-anchor="middle" fill="#58a6ff" font-size="11" font-family="monospace">1</text>
  <rect x="85" y="86" width="42" height="22" rx="2" fill="#161b22"/><text x="106" y="101" text-anchor="middle" fill="#484f58" font-size="11" font-family="monospace">—</text>
  <rect x="130" y="86" width="42" height="22" rx="2" fill="#161b22"/><text x="151" y="101" text-anchor="middle" fill="#484f58" font-size="11" font-family="monospace">—</text>
  <rect x="176" y="86" width="32" height="22" rx="2" fill="#2a1a1a"/><text x="192" y="101" text-anchor="middle" fill="#f85149" font-size="11" font-weight="700">F</text>

  <!-- Row 1: ref=2, [1,2,—], F -->
  <rect x="15" y="110" width="22" height="22" rx="2" fill="#161b22"/><text x="26" y="125" text-anchor="middle" fill="#8b949e" font-size="11" font-family="monospace">2</text>
  <rect x="40" y="110" width="42" height="22" rx="2" fill="#1e2329"/><text x="61" y="125" text-anchor="middle" fill="#e6edf3" font-size="11" font-family="monospace">1</text>
  <rect x="85" y="110" width="42" height="22" rx="2" fill="#1c3a5e"/><text x="106" y="125" text-anchor="middle" fill="#58a6ff" font-size="11" font-family="monospace">2</text>
  <rect x="130" y="110" width="42" height="22" rx="2" fill="#161b22"/><text x="151" y="125" text-anchor="middle" fill="#484f58" font-size="11" font-family="monospace">—</text>
  <rect x="176" y="110" width="32" height="22" rx="2" fill="#2a1a1a"/><text x="192" y="125" text-anchor="middle" fill="#f85149" font-size="11" font-weight="700">F</text>

  <!-- Row 2: ref=3, [1,2,3], F -->
  <rect x="15" y="134" width="22" height="22" rx="2" fill="#161b22"/><text x="26" y="149" text-anchor="middle" fill="#8b949e" font-size="11" font-family="monospace">3</text>
  <rect x="40" y="134" width="42" height="22" rx="2" fill="#1e2329"/><text x="61" y="149" text-anchor="middle" fill="#e6edf3" font-size="11" font-family="monospace">1</text>
  <rect x="85" y="134" width="42" height="22" rx="2" fill="#1e2329"/><text x="106" y="149" text-anchor="middle" fill="#e6edf3" font-size="11" font-family="monospace">2</text>
  <rect x="130" y="134" width="42" height="22" rx="2" fill="#1c3a5e"/><text x="151" y="149" text-anchor="middle" fill="#58a6ff" font-size="11" font-family="monospace">3</text>
  <rect x="176" y="134" width="32" height="22" rx="2" fill="#2a1a1a"/><text x="192" y="149" text-anchor="middle" fill="#f85149" font-size="11" font-weight="700">F</text>

  <!-- Row 3: ref=4, [4,2,3], F -->
  <rect x="15" y="158" width="22" height="22" rx="2" fill="#161b22"/><text x="26" y="173" text-anchor="middle" fill="#8b949e" font-size="11" font-family="monospace">4</text>
  <rect x="40" y="158" width="42" height="22" rx="2" fill="#1c3a5e"/><text x="61" y="173" text-anchor="middle" fill="#58a6ff" font-size="11" font-family="monospace">4</text>
  <rect x="85" y="158" width="42" height="22" rx="2" fill="#1e2329"/><text x="106" y="173" text-anchor="middle" fill="#e6edf3" font-size="11" font-family="monospace">2</text>
  <rect x="130" y="158" width="42" height="22" rx="2" fill="#1e2329"/><text x="151" y="173" text-anchor="middle" fill="#e6edf3" font-size="11" font-family="monospace">3</text>
  <rect x="176" y="158" width="32" height="22" rx="2" fill="#2a1a1a"/><text x="192" y="173" text-anchor="middle" fill="#f85149" font-size="11" font-weight="700">F</text>

  <!-- Row 4: ref=1, [4,1,3], F -->
  <rect x="15" y="182" width="22" height="22" rx="2" fill="#161b22"/><text x="26" y="197" text-anchor="middle" fill="#8b949e" font-size="11" font-family="monospace">1</text>
  <rect x="40" y="182" width="42" height="22" rx="2" fill="#1e2329"/><text x="61" y="197" text-anchor="middle" fill="#e6edf3" font-size="11" font-family="monospace">4</text>
  <rect x="85" y="182" width="42" height="22" rx="2" fill="#1c3a5e"/><text x="106" y="197" text-anchor="middle" fill="#58a6ff" font-size="11" font-family="monospace">1</text>
  <rect x="130" y="182" width="42" height="22" rx="2" fill="#1e2329"/><text x="151" y="197" text-anchor="middle" fill="#e6edf3" font-size="11" font-family="monospace">3</text>
  <rect x="176" y="182" width="32" height="22" rx="2" fill="#2a1a1a"/><text x="192" y="197" text-anchor="middle" fill="#f85149" font-size="11" font-weight="700">F</text>

  <!-- Row 5: ref=2, [4,1,2], F -->
  <rect x="15" y="206" width="22" height="22" rx="2" fill="#161b22"/><text x="26" y="221" text-anchor="middle" fill="#8b949e" font-size="11" font-family="monospace">2</text>
  <rect x="40" y="206" width="42" height="22" rx="2" fill="#1e2329"/><text x="61" y="221" text-anchor="middle" fill="#e6edf3" font-size="11" font-family="monospace">4</text>
  <rect x="85" y="206" width="42" height="22" rx="2" fill="#1e2329"/><text x="106" y="221" text-anchor="middle" fill="#e6edf3" font-size="11" font-family="monospace">1</text>
  <rect x="130" y="206" width="42" height="22" rx="2" fill="#1c3a5e"/><text x="151" y="221" text-anchor="middle" fill="#58a6ff" font-size="11" font-family="monospace">2</text>
  <rect x="176" y="206" width="32" height="22" rx="2" fill="#2a1a1a"/><text x="192" y="221" text-anchor="middle" fill="#f85149" font-size="11" font-weight="700">F</text>

  <!-- Row 6: ref=5, [5,1,2], F -->
  <rect x="15" y="230" width="22" height="22" rx="2" fill="#161b22"/><text x="26" y="245" text-anchor="middle" fill="#8b949e" font-size="11" font-family="monospace">5</text>
  <rect x="40" y="230" width="42" height="22" rx="2" fill="#1c3a5e"/><text x="61" y="245" text-anchor="middle" fill="#58a6ff" font-size="11" font-family="monospace">5</text>
  <rect x="85" y="230" width="42" height="22" rx="2" fill="#1e2329"/><text x="106" y="245" text-anchor="middle" fill="#e6edf3" font-size="11" font-family="monospace">1</text>
  <rect x="130" y="230" width="42" height="22" rx="2" fill="#1e2329"/><text x="151" y="245" text-anchor="middle" fill="#e6edf3" font-size="11" font-family="monospace">2</text>
  <rect x="176" y="230" width="32" height="22" rx="2" fill="#2a1a1a"/><text x="192" y="245" text-anchor="middle" fill="#f85149" font-size="11" font-weight="700">F</text>

  <!-- Row 7: ref=1, [5,1,2], H -->
  <rect x="15" y="254" width="22" height="22" rx="2" fill="#161b22"/><text x="26" y="269" text-anchor="middle" fill="#8b949e" font-size="11" font-family="monospace">1</text>
  <rect x="40" y="254" width="42" height="22" rx="2" fill="#1e2329"/><text x="61" y="269" text-anchor="middle" fill="#e6edf3" font-size="11" font-family="monospace">5</text>
  <rect x="85" y="254" width="42" height="22" rx="2" fill="#1e2329"/><text x="106" y="269" text-anchor="middle" fill="#e6edf3" font-size="11" font-family="monospace">1</text>
  <rect x="130" y="254" width="42" height="22" rx="2" fill="#1e2329"/><text x="151" y="269" text-anchor="middle" fill="#e6edf3" font-size="11" font-family="monospace">2</text>
  <rect x="176" y="254" width="32" height="22" rx="2" fill="#1a3a27"/><text x="192" y="269" text-anchor="middle" fill="#3fb950" font-size="11" font-weight="700">H</text>

  <!-- Row 8: ref=2, [5,1,2], H -->
  <rect x="15" y="278" width="22" height="22" rx="2" fill="#161b22"/><text x="26" y="293" text-anchor="middle" fill="#8b949e" font-size="11" font-family="monospace">2</text>
  <rect x="40" y="278" width="42" height="22" rx="2" fill="#1e2329"/><text x="61" y="293" text-anchor="middle" fill="#e6edf3" font-size="11" font-family="monospace">5</text>
  <rect x="85" y="278" width="42" height="22" rx="2" fill="#1e2329"/><text x="106" y="293" text-anchor="middle" fill="#e6edf3" font-size="11" font-family="monospace">1</text>
  <rect x="130" y="278" width="42" height="22" rx="2" fill="#1e2329"/><text x="151" y="293" text-anchor="middle" fill="#e6edf3" font-size="11" font-family="monospace">2</text>
  <rect x="176" y="278" width="32" height="22" rx="2" fill="#1a3a27"/><text x="192" y="293" text-anchor="middle" fill="#3fb950" font-size="11" font-weight="700">H</text>

  <!-- Row 9: ref=3, [5,3,2], F -->
  <rect x="15" y="302" width="22" height="22" rx="2" fill="#161b22"/><text x="26" y="317" text-anchor="middle" fill="#8b949e" font-size="11" font-family="monospace">3</text>
  <rect x="40" y="302" width="42" height="22" rx="2" fill="#1e2329"/><text x="61" y="317" text-anchor="middle" fill="#e6edf3" font-size="11" font-family="monospace">5</text>
  <rect x="85" y="302" width="42" height="22" rx="2" fill="#1c3a5e"/><text x="106" y="317" text-anchor="middle" fill="#58a6ff" font-size="11" font-family="monospace">3</text>
  <rect x="130" y="302" width="42" height="22" rx="2" fill="#1e2329"/><text x="151" y="317" text-anchor="middle" fill="#e6edf3" font-size="11" font-family="monospace">2</text>
  <rect x="176" y="302" width="32" height="22" rx="2" fill="#2a1a1a"/><text x="192" y="317" text-anchor="middle" fill="#f85149" font-size="11" font-weight="700">F</text>

  <!-- Row 10: ref=4, [5,3,4], F -->
  <rect x="15" y="326" width="22" height="22" rx="2" fill="#161b22"/><text x="26" y="341" text-anchor="middle" fill="#8b949e" font-size="11" font-family="monospace">4</text>
  <rect x="40" y="326" width="42" height="22" rx="2" fill="#1e2329"/><text x="61" y="341" text-anchor="middle" fill="#e6edf3" font-size="11" font-family="monospace">5</text>
  <rect x="85" y="326" width="42" height="22" rx="2" fill="#1e2329"/><text x="106" y="341" text-anchor="middle" fill="#e6edf3" font-size="11" font-family="monospace">3</text>
  <rect x="130" y="326" width="42" height="22" rx="2" fill="#1c3a5e"/><text x="151" y="341" text-anchor="middle" fill="#58a6ff" font-size="11" font-family="monospace">4</text>
  <rect x="176" y="326" width="32" height="22" rx="2" fill="#2a1a1a"/><text x="192" y="341" text-anchor="middle" fill="#f85149" font-size="11" font-weight="700">F</text>

  <!-- Row 11: ref=5, [5,3,4], H -->
  <rect x="15" y="350" width="22" height="22" rx="2" fill="#161b22"/><text x="26" y="365" text-anchor="middle" fill="#8b949e" font-size="11" font-family="monospace">5</text>
  <rect x="40" y="350" width="42" height="22" rx="2" fill="#1e2329"/><text x="61" y="365" text-anchor="middle" fill="#e6edf3" font-size="11" font-family="monospace">5</text>
  <rect x="85" y="350" width="42" height="22" rx="2" fill="#1e2329"/><text x="106" y="365" text-anchor="middle" fill="#e6edf3" font-size="11" font-family="monospace">3</text>
  <rect x="130" y="350" width="42" height="22" rx="2" fill="#1e2329"/><text x="151" y="365" text-anchor="middle" fill="#e6edf3" font-size="11" font-family="monospace">4</text>
  <rect x="176" y="350" width="32" height="22" rx="2" fill="#1a3a27"/><text x="192" y="365" text-anchor="middle" fill="#3fb950" font-size="11" font-weight="700">H</text>

  <!-- 3-frame total -->
  <rect x="15" y="375" width="193" height="20" rx="2" fill="#1a3a27" stroke="#3fb950" stroke-width="1"/>
  <text x="111" y="389" text-anchor="middle" fill="#3fb950" font-size="11" font-weight="700">총 폴트: 9번</text>

  <!-- ===== Divider ===== -->
  <line x1="360" y1="55" x2="360" y2="400" stroke="#21262d" stroke-width="1.5"/>

  <!-- ===== RIGHT TABLE (4 frames) ===== -->
  <text x="510" y="62" text-anchor="middle" fill="#f85149" font-size="12" font-weight="700">4 프레임</text>
  <!-- Header -->
  <rect x="368" y="66" width="22" height="18" rx="2" fill="#21262d"/><text x="379" y="79" text-anchor="middle" fill="#6e7681" font-size="10">참조</text>
  <rect x="393" y="66" width="38" height="18" rx="2" fill="#21262d"/><text x="412" y="79" text-anchor="middle" fill="#6e7681" font-size="10">F1</text>
  <rect x="434" y="66" width="38" height="18" rx="2" fill="#21262d"/><text x="453" y="79" text-anchor="middle" fill="#6e7681" font-size="10">F2</text>
  <rect x="475" y="66" width="38" height="18" rx="2" fill="#21262d"/><text x="494" y="79" text-anchor="middle" fill="#6e7681" font-size="10">F3</text>
  <rect x="516" y="66" width="38" height="18" rx="2" fill="#21262d"/><text x="535" y="79" text-anchor="middle" fill="#6e7681" font-size="10">F4</text>
  <rect x="558" y="66" width="32" height="18" rx="2" fill="#21262d"/><text x="574" y="79" text-anchor="middle" fill="#6e7681" font-size="10">결과</text>

  <!-- Row 0: ref=1, [1,—,—,—], F -->
  <rect x="368" y="86" width="22" height="22" rx="2" fill="#161b22"/><text x="379" y="101" text-anchor="middle" fill="#8b949e" font-size="11" font-family="monospace">1</text>
  <rect x="393" y="86" width="38" height="22" rx="2" fill="#1c3a5e"/><text x="412" y="101" text-anchor="middle" fill="#58a6ff" font-size="11" font-family="monospace">1</text>
  <rect x="434" y="86" width="38" height="22" rx="2" fill="#161b22"/><text x="453" y="101" text-anchor="middle" fill="#484f58" font-size="11" font-family="monospace">—</text>
  <rect x="475" y="86" width="38" height="22" rx="2" fill="#161b22"/><text x="494" y="101" text-anchor="middle" fill="#484f58" font-size="11" font-family="monospace">—</text>
  <rect x="516" y="86" width="38" height="22" rx="2" fill="#161b22"/><text x="535" y="101" text-anchor="middle" fill="#484f58" font-size="11" font-family="monospace">—</text>
  <rect x="558" y="86" width="32" height="22" rx="2" fill="#2a1a1a"/><text x="574" y="101" text-anchor="middle" fill="#f85149" font-size="11" font-weight="700">F</text>

  <!-- Row 1: ref=2, [1,2,—,—], F -->
  <rect x="368" y="110" width="22" height="22" rx="2" fill="#161b22"/><text x="379" y="125" text-anchor="middle" fill="#8b949e" font-size="11" font-family="monospace">2</text>
  <rect x="393" y="110" width="38" height="22" rx="2" fill="#1e2329"/><text x="412" y="125" text-anchor="middle" fill="#e6edf3" font-size="11" font-family="monospace">1</text>
  <rect x="434" y="110" width="38" height="22" rx="2" fill="#1c3a5e"/><text x="453" y="125" text-anchor="middle" fill="#58a6ff" font-size="11" font-family="monospace">2</text>
  <rect x="475" y="110" width="38" height="22" rx="2" fill="#161b22"/><text x="494" y="125" text-anchor="middle" fill="#484f58" font-size="11" font-family="monospace">—</text>
  <rect x="516" y="110" width="38" height="22" rx="2" fill="#161b22"/><text x="535" y="125" text-anchor="middle" fill="#484f58" font-size="11" font-family="monospace">—</text>
  <rect x="558" y="110" width="32" height="22" rx="2" fill="#2a1a1a"/><text x="574" y="125" text-anchor="middle" fill="#f85149" font-size="11" font-weight="700">F</text>

  <!-- Row 2: ref=3, [1,2,3,—], F -->
  <rect x="368" y="134" width="22" height="22" rx="2" fill="#161b22"/><text x="379" y="149" text-anchor="middle" fill="#8b949e" font-size="11" font-family="monospace">3</text>
  <rect x="393" y="134" width="38" height="22" rx="2" fill="#1e2329"/><text x="412" y="149" text-anchor="middle" fill="#e6edf3" font-size="11" font-family="monospace">1</text>
  <rect x="434" y="134" width="38" height="22" rx="2" fill="#1e2329"/><text x="453" y="149" text-anchor="middle" fill="#e6edf3" font-size="11" font-family="monospace">2</text>
  <rect x="475" y="134" width="38" height="22" rx="2" fill="#1c3a5e"/><text x="494" y="149" text-anchor="middle" fill="#58a6ff" font-size="11" font-family="monospace">3</text>
  <rect x="516" y="134" width="38" height="22" rx="2" fill="#161b22"/><text x="535" y="149" text-anchor="middle" fill="#484f58" font-size="11" font-family="monospace">—</text>
  <rect x="558" y="134" width="32" height="22" rx="2" fill="#2a1a1a"/><text x="574" y="149" text-anchor="middle" fill="#f85149" font-size="11" font-weight="700">F</text>

  <!-- Row 3: ref=4, [1,2,3,4], F -->
  <rect x="368" y="158" width="22" height="22" rx="2" fill="#161b22"/><text x="379" y="173" text-anchor="middle" fill="#8b949e" font-size="11" font-family="monospace">4</text>
  <rect x="393" y="158" width="38" height="22" rx="2" fill="#1e2329"/><text x="412" y="173" text-anchor="middle" fill="#e6edf3" font-size="11" font-family="monospace">1</text>
  <rect x="434" y="158" width="38" height="22" rx="2" fill="#1e2329"/><text x="453" y="173" text-anchor="middle" fill="#e6edf3" font-size="11" font-family="monospace">2</text>
  <rect x="475" y="158" width="38" height="22" rx="2" fill="#1e2329"/><text x="494" y="173" text-anchor="middle" fill="#e6edf3" font-size="11" font-family="monospace">3</text>
  <rect x="516" y="158" width="38" height="22" rx="2" fill="#1c3a5e"/><text x="535" y="173" text-anchor="middle" fill="#58a6ff" font-size="11" font-family="monospace">4</text>
  <rect x="558" y="158" width="32" height="22" rx="2" fill="#2a1a1a"/><text x="574" y="173" text-anchor="middle" fill="#f85149" font-size="11" font-weight="700">F</text>

  <!-- Row 4: ref=1, [1,2,3,4], H -->
  <rect x="368" y="182" width="22" height="22" rx="2" fill="#161b22"/><text x="379" y="197" text-anchor="middle" fill="#8b949e" font-size="11" font-family="monospace">1</text>
  <rect x="393" y="182" width="38" height="22" rx="2" fill="#1e2329"/><text x="412" y="197" text-anchor="middle" fill="#e6edf3" font-size="11" font-family="monospace">1</text>
  <rect x="434" y="182" width="38" height="22" rx="2" fill="#1e2329"/><text x="453" y="197" text-anchor="middle" fill="#e6edf3" font-size="11" font-family="monospace">2</text>
  <rect x="475" y="182" width="38" height="22" rx="2" fill="#1e2329"/><text x="494" y="197" text-anchor="middle" fill="#e6edf3" font-size="11" font-family="monospace">3</text>
  <rect x="516" y="182" width="38" height="22" rx="2" fill="#1e2329"/><text x="535" y="197" text-anchor="middle" fill="#e6edf3" font-size="11" font-family="monospace">4</text>
  <rect x="558" y="182" width="32" height="22" rx="2" fill="#1a3a27"/><text x="574" y="197" text-anchor="middle" fill="#3fb950" font-size="11" font-weight="700">H</text>

  <!-- Row 5: ref=2, [1,2,3,4], H -->
  <rect x="368" y="206" width="22" height="22" rx="2" fill="#161b22"/><text x="379" y="221" text-anchor="middle" fill="#8b949e" font-size="11" font-family="monospace">2</text>
  <rect x="393" y="206" width="38" height="22" rx="2" fill="#1e2329"/><text x="412" y="221" text-anchor="middle" fill="#e6edf3" font-size="11" font-family="monospace">1</text>
  <rect x="434" y="206" width="38" height="22" rx="2" fill="#1e2329"/><text x="453" y="221" text-anchor="middle" fill="#e6edf3" font-size="11" font-family="monospace">2</text>
  <rect x="475" y="206" width="38" height="22" rx="2" fill="#1e2329"/><text x="494" y="221" text-anchor="middle" fill="#e6edf3" font-size="11" font-family="monospace">3</text>
  <rect x="516" y="206" width="38" height="22" rx="2" fill="#1e2329"/><text x="535" y="221" text-anchor="middle" fill="#e6edf3" font-size="11" font-family="monospace">4</text>
  <rect x="558" y="206" width="32" height="22" rx="2" fill="#1a3a27"/><text x="574" y="221" text-anchor="middle" fill="#3fb950" font-size="11" font-weight="700">H</text>

  <!-- Row 6: ref=5, [5,2,3,4], F -->
  <rect x="368" y="230" width="22" height="22" rx="2" fill="#161b22"/><text x="379" y="245" text-anchor="middle" fill="#8b949e" font-size="11" font-family="monospace">5</text>
  <rect x="393" y="230" width="38" height="22" rx="2" fill="#1c3a5e"/><text x="412" y="245" text-anchor="middle" fill="#58a6ff" font-size="11" font-family="monospace">5</text>
  <rect x="434" y="230" width="38" height="22" rx="2" fill="#1e2329"/><text x="453" y="245" text-anchor="middle" fill="#e6edf3" font-size="11" font-family="monospace">2</text>
  <rect x="475" y="230" width="38" height="22" rx="2" fill="#1e2329"/><text x="494" y="245" text-anchor="middle" fill="#e6edf3" font-size="11" font-family="monospace">3</text>
  <rect x="516" y="230" width="38" height="22" rx="2" fill="#1e2329"/><text x="535" y="245" text-anchor="middle" fill="#e6edf3" font-size="11" font-family="monospace">4</text>
  <rect x="558" y="230" width="32" height="22" rx="2" fill="#2a1a1a"/><text x="574" y="245" text-anchor="middle" fill="#f85149" font-size="11" font-weight="700">F</text>

  <!-- Row 7: ref=1, [5,1,3,4], F -->
  <rect x="368" y="254" width="22" height="22" rx="2" fill="#161b22"/><text x="379" y="269" text-anchor="middle" fill="#8b949e" font-size="11" font-family="monospace">1</text>
  <rect x="393" y="254" width="38" height="22" rx="2" fill="#1e2329"/><text x="412" y="269" text-anchor="middle" fill="#e6edf3" font-size="11" font-family="monospace">5</text>
  <rect x="434" y="254" width="38" height="22" rx="2" fill="#1c3a5e"/><text x="453" y="269" text-anchor="middle" fill="#58a6ff" font-size="11" font-family="monospace">1</text>
  <rect x="475" y="254" width="38" height="22" rx="2" fill="#1e2329"/><text x="494" y="269" text-anchor="middle" fill="#e6edf3" font-size="11" font-family="monospace">3</text>
  <rect x="516" y="254" width="38" height="22" rx="2" fill="#1e2329"/><text x="535" y="269" text-anchor="middle" fill="#e6edf3" font-size="11" font-family="monospace">4</text>
  <rect x="558" y="254" width="32" height="22" rx="2" fill="#2a1a1a"/><text x="574" y="269" text-anchor="middle" fill="#f85149" font-size="11" font-weight="700">F</text>

  <!-- Row 8: ref=2, [5,1,2,4], F -->
  <rect x="368" y="278" width="22" height="22" rx="2" fill="#161b22"/><text x="379" y="293" text-anchor="middle" fill="#8b949e" font-size="11" font-family="monospace">2</text>
  <rect x="393" y="278" width="38" height="22" rx="2" fill="#1e2329"/><text x="412" y="293" text-anchor="middle" fill="#e6edf3" font-size="11" font-family="monospace">5</text>
  <rect x="434" y="278" width="38" height="22" rx="2" fill="#1e2329"/><text x="453" y="293" text-anchor="middle" fill="#e6edf3" font-size="11" font-family="monospace">1</text>
  <rect x="475" y="278" width="38" height="22" rx="2" fill="#1c3a5e"/><text x="494" y="293" text-anchor="middle" fill="#58a6ff" font-size="11" font-family="monospace">2</text>
  <rect x="516" y="278" width="38" height="22" rx="2" fill="#1e2329"/><text x="535" y="293" text-anchor="middle" fill="#e6edf3" font-size="11" font-family="monospace">4</text>
  <rect x="558" y="278" width="32" height="22" rx="2" fill="#2a1a1a"/><text x="574" y="293" text-anchor="middle" fill="#f85149" font-size="11" font-weight="700">F</text>

  <!-- Row 9: ref=3, [5,1,2,3], F -->
  <rect x="368" y="302" width="22" height="22" rx="2" fill="#161b22"/><text x="379" y="317" text-anchor="middle" fill="#8b949e" font-size="11" font-family="monospace">3</text>
  <rect x="393" y="302" width="38" height="22" rx="2" fill="#1e2329"/><text x="412" y="317" text-anchor="middle" fill="#e6edf3" font-size="11" font-family="monospace">5</text>
  <rect x="434" y="302" width="38" height="22" rx="2" fill="#1e2329"/><text x="453" y="317" text-anchor="middle" fill="#e6edf3" font-size="11" font-family="monospace">1</text>
  <rect x="475" y="302" width="38" height="22" rx="2" fill="#1e2329"/><text x="494" y="317" text-anchor="middle" fill="#e6edf3" font-size="11" font-family="monospace">2</text>
  <rect x="516" y="302" width="38" height="22" rx="2" fill="#1c3a5e"/><text x="535" y="317" text-anchor="middle" fill="#58a6ff" font-size="11" font-family="monospace">3</text>
  <rect x="558" y="302" width="32" height="22" rx="2" fill="#2a1a1a"/><text x="574" y="317" text-anchor="middle" fill="#f85149" font-size="11" font-weight="700">F</text>

  <!-- Row 10: ref=4, [4,1,2,3], F -->
  <rect x="368" y="326" width="22" height="22" rx="2" fill="#161b22"/><text x="379" y="341" text-anchor="middle" fill="#8b949e" font-size="11" font-family="monospace">4</text>
  <rect x="393" y="326" width="38" height="22" rx="2" fill="#1c3a5e"/><text x="412" y="341" text-anchor="middle" fill="#58a6ff" font-size="11" font-family="monospace">4</text>
  <rect x="434" y="326" width="38" height="22" rx="2" fill="#1e2329"/><text x="453" y="341" text-anchor="middle" fill="#e6edf3" font-size="11" font-family="monospace">1</text>
  <rect x="475" y="326" width="38" height="22" rx="2" fill="#1e2329"/><text x="494" y="341" text-anchor="middle" fill="#e6edf3" font-size="11" font-family="monospace">2</text>
  <rect x="516" y="326" width="38" height="22" rx="2" fill="#1e2329"/><text x="535" y="341" text-anchor="middle" fill="#e6edf3" font-size="11" font-family="monospace">3</text>
  <rect x="558" y="326" width="32" height="22" rx="2" fill="#2a1a1a"/><text x="574" y="341" text-anchor="middle" fill="#f85149" font-size="11" font-weight="700">F</text>

  <!-- Row 11: ref=5, [4,5,2,3], F -->
  <rect x="368" y="350" width="22" height="22" rx="2" fill="#161b22"/><text x="379" y="365" text-anchor="middle" fill="#8b949e" font-size="11" font-family="monospace">5</text>
  <rect x="393" y="350" width="38" height="22" rx="2" fill="#1e2329"/><text x="412" y="365" text-anchor="middle" fill="#e6edf3" font-size="11" font-family="monospace">4</text>
  <rect x="434" y="350" width="38" height="22" rx="2" fill="#1c3a5e"/><text x="453" y="365" text-anchor="middle" fill="#58a6ff" font-size="11" font-family="monospace">5</text>
  <rect x="475" y="350" width="38" height="22" rx="2" fill="#1e2329"/><text x="494" y="365" text-anchor="middle" fill="#e6edf3" font-size="11" font-family="monospace">2</text>
  <rect x="516" y="350" width="38" height="22" rx="2" fill="#1e2329"/><text x="535" y="365" text-anchor="middle" fill="#e6edf3" font-size="11" font-family="monospace">3</text>
  <rect x="558" y="350" width="32" height="22" rx="2" fill="#2a1a1a"/><text x="574" y="365" text-anchor="middle" fill="#f85149" font-size="11" font-weight="700">F</text>

  <!-- 4-frame total -->
  <rect x="368" y="375" width="222" height="20" rx="2" fill="#2a1a1a" stroke="#f85149" stroke-width="1"/>
  <text x="479" y="389" text-anchor="middle" fill="#f85149" font-size="11" font-weight="700">총 폴트: 10번 (프레임 늘렸는데 증가!)</text>

  <!-- Bottom note -->
  <text x="360" y="416" text-anchor="middle" fill="#484f58" font-size="10">파란색 = 새로 적재된 페이지 / 4프레임: 5번 접근 후 히트 2회, 이후 6연속 폴트</text>
</svg>
